<svg xmlns="http://www.w3.org/2000/svg" width="960" height="540" viewBox="0 0 960 540" role="img" aria-labelledby="title desc">
  <title id="title">接口和支架</title>
  <desc id="desc">用接口、线材和可调支架说明插得上不代表跑得满，支架影响长期使用。</desc>
  <rect width="960" height="540" fill="#f8fafc"/>
  <rect x="94" y="82" width="420" height="268" rx="22" fill="#ffffff" stroke="#111827" stroke-width="4"/>
  <rect x="134" y="132" width="96" height="54" rx="10" fill="#dbeafe" stroke="#2563eb" stroke-width="3"/>
  <text x="182" y="167" text-anchor="middle" font-family="Arial, sans-serif" font-size="24" font-weight="700" fill="#1d4ed8">HDMI</text>
  <rect x="260" y="132" width="96" height="54" rx="10" fill="#dcfce7" stroke="#16a34a" stroke-width="3"/>
  <text x="308" y="167" text-anchor="middle" font-family="Arial, sans-serif" font-size="24" font-weight="700" fill="#15803d">DP</text>
  <rect x="386" y="132" width="86" height="54" rx="27" fill="#fef3c7" stroke="#d97706" stroke-width="3"/>
  <text x="429" y="167" text-anchor="middle" font-family="Arial, sans-serif" font-size="24" font-weight="700" fill="#b45309">USB-C</text>
  <path d="M168 228h270" stroke="#64748b" stroke-width="12" stroke-linecap="round"/>
  <path d="M438 228c50 0 74 36 102 70" fill="none" stroke="#64748b" stroke-width="12" stroke-linecap="round"/>
  <rect x="596" y="100" width="250" height="180" rx="18" fill="#e0f2fe" stroke="#0284c7" stroke-width="4"/>
  <rect x="704" y="280" width="36" height="92" fill="#0284c7"/>
  <rect x="640" y="372" width="164" height="28" rx="14" fill="#0284c7"/>
  <path d="M862 120v238" stroke="#ef4444" stroke-width="8" stroke-linecap="round"/>
  <path d="M862 120l-22 34M862 120l22 34M862 358l-22-34M862 358l22-34" stroke="#ef4444" stroke-width="8" stroke-linecap="round"/>
  <text x="480" y="462" text-anchor="middle" font-family="Arial, sans-serif" font-size="32" font-weight="700" fill="#111827">接口要跑满，支架要舒服</text>
  <text x="480" y="500" text-anchor="middle" font-family="Arial, sans-serif" font-size="25" fill="#475569">电脑、显示器、线材三者都要支持目标规格</text>
</svg>
